<?xml version="1.0" encoding="UTF-8"?>
<svg id="_레이어_1" data-name="레이어 1" xmlns="http://www.w3.org/2000/svg" viewBox="0 0 15 15">
  <defs>
    <style>
      .cls-1 {
        fill: none;
        stroke: #000;
        stroke-miterlimit: 10;
        stroke-width: .75px;
      }
    </style>
  </defs>
  <path class="cls-1" d="M11.14,1c.27,1.51.27,2.63.18,2.85-.12.3-.32.48-.32.48,0,0-.02.01-.02.02-.42.36-1.17.45-2.44,0-4.42-1.58-1.32,2.48-1.32,2.48,0,0,2.06,2.35-1.9,2.26-.07,0-.13,0-.19,0-3.78.06-4.09,4.8-4.09,4.8h4.9s.24-3.66,3.16-3.71c.05,0,.1,0,.15,0,3.06.07,1.47-1.74,1.47-1.74,0,0-2.39-3.14,1.02-1.92,3.41,1.22,1.94-2.64,1.94-2.64-.39-.91-.78-1.82-1.18-2.74-.45-.05-.9-.1-1.35-.15Z"/>
  <path class="cls-1" d="M12.66,1.16c-.43-.09-1.05-.2-1.81-.23-.37-.01-5.82-.12-8.34,3.45-1.46,2.07-1.47,4.7-1.48,9.51,0,.07,0,.13,0,.17"/>
</svg>